<?xml version="1.0" encoding="UTF-8" standalone="no"?>
<!-- Created with Inkscape (http://www.inkscape.org/) -->

<svg
   width="297mm"
   height="210mm"
   viewBox="0 0 297 210"
   version="1.1"
   id="svg5"
   xmlns="http://www.w3.org/2000/svg"
   xmlns:svg="http://www.w3.org/2000/svg">
  <defs
     id="defs2">
    <marker
       style="overflow:visible"
       id="DotM"
       refX="0.0"
       refY="0.0"
       orient="auto">
      <path
         transform="scale(0.4) translate(7.4, 1)"
         style="fill-rule:evenodd;fill:context-stroke;stroke:context-stroke;stroke-width:1.0pt"
         d="M -2.5,-1.0 C -2.5,1.7600000 -4.7400000,4.0 -7.5,4.0 C -10.260000,4.0 -12.5,1.7600000 -12.5,-1.0 C -12.5,-3.7600000 -10.260000,-6.0 -7.5,-6.0 C -4.7400000,-6.0 -2.5,-3.7600000 -2.5,-1.0 z "
         id="path81494" />
    </marker>
    <marker
       style="overflow:visible"
       id="Arrow2Sstart"
       refX="0.0"
       refY="0.0"
       orient="auto">
      <path
         transform="scale(0.3) translate(-2.3,0)"
         d="M 8.7185878,4.0337352 L -2.2072895,0.016013256 L 8.7185884,-4.0017078 C 6.9730900,-1.6296469 6.9831476,1.6157441 8.7185878,4.0337352 z "
         style="stroke:context-stroke;fill-rule:evenodd;fill:context-stroke;stroke-width:0.62500000;stroke-linejoin:round"
         id="path81460" />
    </marker>
    <marker
       style="overflow:visible;"
       id="Arrow2Send"
       refX="0.0"
       refY="0.0"
       orient="auto">
      <path
         transform="scale(0.3) rotate(180) translate(-2.3,0)"
         d="M 8.7185878,4.0337352 L -2.2072895,0.016013256 L 8.7185884,-4.0017078 C 6.9730900,-1.6296469 6.9831476,1.6157441 8.7185878,4.0337352 z "
         style="stroke:context-stroke;fill-rule:evenodd;fill:context-stroke;stroke-width:0.62500000;stroke-linejoin:round;"
         id="path81463" />
    </marker>
    <marker
       style="overflow:visible;"
       id="Arrow1Send"
       refX="0.0"
       refY="0.0"
       orient="auto">
      <path
         transform="scale(0.2) rotate(180) translate(6,0)"
         style="fill-rule:evenodd;fill:context-stroke;stroke:context-stroke;stroke-width:1.0pt;"
         d="M 0.0,0.0 L 5.0,-5.0 L -12.5,0.0 L 5.0,5.0 L 0.0,0.0 z "
         id="path81445" />
    </marker>
    <marker
       style="overflow:visible;"
       id="marker81732"
       refX="0.0"
       refY="0.0"
       orient="auto">
      <path
         transform="scale(0.4) rotate(180) translate(10,0)"
         style="fill-rule:evenodd;fill:context-stroke;stroke:context-stroke;stroke-width:1.0pt;"
         d="M 0.0,0.0 L 5.0,-5.0 L -12.5,0.0 L 5.0,5.0 L 0.0,0.0 z "
         id="path81730" />
    </marker>
    <marker
       style="overflow:visible;"
       id="Arrow1Mend"
       refX="0.0"
       refY="0.0"
       orient="auto">
      <path
         transform="scale(0.4) rotate(180) translate(10,0)"
         style="fill-rule:evenodd;fill:context-stroke;stroke:context-stroke;stroke-width:1.0pt;"
         d="M 0.0,0.0 L 5.0,-5.0 L -12.5,0.0 L 5.0,5.0 L 0.0,0.0 z "
         id="path81439" />
    </marker>
    <marker
       style="overflow:visible"
       id="Arrow1Sstart"
       refX="0.0"
       refY="0.0"
       orient="auto">
      <path
         transform="scale(0.2) translate(6,0)"
         style="fill-rule:evenodd;fill:context-stroke;stroke:context-stroke;stroke-width:1.0pt"
         d="M 0.0,0.0 L 5.0,-5.0 L -12.5,0.0 L 5.0,5.0 L 0.0,0.0 z "
         id="path81442" />
    </marker>
    <marker
       style="overflow:visible;"
       id="Arrow2Lend"
       refX="0.0"
       refY="0.0"
       orient="auto">
      <path
         transform="scale(1.1) rotate(180) translate(1,0)"
         d="M 8.7185878,4.0337352 L -2.2072895,0.016013256 L 8.7185884,-4.0017078 C 6.9730900,-1.6296469 6.9831476,1.6157441 8.7185878,4.0337352 z "
         style="stroke:context-stroke;fill-rule:evenodd;fill:context-stroke;stroke-width:0.62500000;stroke-linejoin:round;"
         id="path81451" />
    </marker>
    <marker
       style="overflow:visible"
       id="Arrow2Lstart"
       refX="0.0"
       refY="0.0"
       orient="auto">
      <path
         transform="scale(1.1) translate(1,0)"
         d="M 8.7185878,4.0337352 L -2.2072895,0.016013256 L 8.7185884,-4.0017078 C 6.9730900,-1.6296469 6.9831476,1.6157441 8.7185878,4.0337352 z "
         style="stroke:context-stroke;fill-rule:evenodd;fill:context-stroke;stroke-width:0.62500000;stroke-linejoin:round"
         id="path81448" />
    </marker>
    <marker
       style="overflow:visible"
       id="DotL"
       refX="0.0"
       refY="0.0"
       orient="auto">
      <path
         transform="scale(0.8) translate(7.4, 1)"
         style="fill-rule:evenodd;fill:context-stroke;stroke:context-stroke;stroke-width:1.0pt"
         d="M -2.5,-1.0 C -2.5,1.7600000 -4.7400000,4.0 -7.5,4.0 C -10.260000,4.0 -12.5,1.7600000 -12.5,-1.0 C -12.5,-3.7600000 -10.260000,-6.0 -7.5,-6.0 C -4.7400000,-6.0 -2.5,-3.7600000 -2.5,-1.0 z "
         id="path81491" />
    </marker>
    <rect
       x="79.638863"
       y="287.81176"
       width="1021.4726"
       height="667.86818"
       id="rect6172" />
  </defs>
  <g
     id="layer1">
    <g
       aria-label="Adivinar
Número"
       transform="matrix(0.56000769,0,0,0.56000769,67.362117,-73.418429)"
       id="text6170"
       style="font-size:96px;line-height:0.35;white-space:pre;shape-inside:url(#rect6172);fill:#ffffff;fill-opacity:1">
      <path
         d="M 112.63178,283.31552 129.51453,329.55 h -10.5931 l -3.86207,-10.92414 H 94.866258 L 91.114534,329.55 H 80.52143 l 16.772414,-46.23448 z m -15.66897,29.13103 h 16 l -7.94483,-20.52414 z"
         style="font-family:Dhurjati;-inkscape-font-specification:Dhurjati;fill:#ffffff;fill-opacity:1"
         id="path81772" />
      <path
         d="m 134.70071,303.17759 q 0,-1.87587 1.10345,-3.42069 1.10345,-1.54483 2.86897,-2.53793 1.76551,-1.10345 4.08275,-1.65518 2.42759,-0.55172 4.96552,-0.55172 h 6.06897 q 0.66207,0 1.32414,0.11034 0.77241,0 1.43448,0.22069 0.66207,0.11035 1.21379,0.44138 0.55173,0.22069 0.9931,0.44138 v -11.69655 h 10.59311 V 329.55 h -10.59311 v -0.9931 q -2.42758,0.9931 -5.40689,0.9931 h -5.62759 q -2.53793,0 -4.96552,-0.55172 -2.31724,-0.55173 -4.08275,-1.54483 -1.76552,-1.10345 -2.86897,-2.64828 -1.10345,-1.54483 -1.10345,-3.42069 z m 24.05517,0.9931 q -0.11034,-1.54483 -1.32413,-2.2069 -1.2138,-0.77241 -3.2,-0.77241 h -4.4138 q -2.09655,0 -3.31034,0.77241 -1.21379,0.77242 -1.21379,2.31724 v 16 q 0,1.54483 1.21379,2.31725 1.21379,0.77241 3.31034,0.77241 h 4.4138 q 2.09655,0 3.31034,-0.77241 1.21379,-0.77242 1.21379,-2.31725 z"
         style="font-family:Dhurjati;-inkscape-font-specification:Dhurjati;fill:#ffffff;fill-opacity:1"
         id="path81774" />
      <path
         d="m 178.83857,295.01207 h 10.5931 V 329.55 h -10.5931 z m 10.5931,-9.26897 v 6.17931 h -10.5931 v -6.17931 z"
         style="font-family:Dhurjati;-inkscape-font-specification:Dhurjati;fill:#ffffff;fill-opacity:1"
         id="path81776" />
      <path
         d="M 210.06599,329.55 195.0591,294.90172 h 10.5931 l 9.71034,22.28966 9.6,-22.28966 h 10.70345 L 220.6591,329.55 Z"
         style="font-family:Dhurjati;-inkscape-font-specification:Dhurjati;fill:#ffffff;fill-opacity:1"
         id="path81778" />
      <path
         d="m 241.73493,295.01207 h 10.59311 V 329.55 h -10.59311 z m 10.59311,-9.26897 v 6.17931 h -10.59311 v -6.17931 z"
         style="font-family:Dhurjati;-inkscape-font-specification:Dhurjati;fill:#ffffff;fill-opacity:1"
         id="path81780" />
      <path
         d="m 271.30718,329.55 h -10.5931 v -34.53793 h 10.5931 v 2.09655 q 1.2138,-0.9931 3.08966,-1.54483 1.9862,-0.55172 4.08276,-0.55172 h 3.86207 q 2.64827,0 4.96551,0.55172 2.31724,0.55173 4.08276,1.65518 1.87586,0.9931 2.86897,2.53793 1.10344,1.43448 1.10344,3.42069 V 329.55 h -10.5931 v -25.26897 q 0,-1.65517 -1.21379,-2.31724 -1.21379,-0.77241 -3.31035,-0.77241 h -2.75862 q -1.21379,0 -2.31724,0.33103 -1.10345,0.33104 -1.98621,0.88276 -0.88275,0.55173 -1.43448,1.32414 -0.44138,0.77241 -0.44138,1.65517 z"
         style="font-family:Dhurjati;-inkscape-font-specification:Dhurjati;fill:#ffffff;fill-opacity:1"
         id="path81782" />
      <path
         d="m 302.42441,315.86724 q 0,-1.87586 1.10344,-3.42069 1.10345,-1.54483 2.86897,-2.53793 1.76552,-1.10345 4.08276,-1.65517 2.42758,-0.55173 4.96552,-0.55173 h 5.29655 q 0.55172,0 1.21379,0.11035 0.77241,0 1.43448,0.22069 0.66207,0.11034 1.2138,0.44138 0.66207,0.22069 0.9931,0.44138 v -4.63449 q 0,-1.54482 -1.21379,-2.31724 -1.2138,-0.77241 -3.2,-0.77241 h -3.2 q -2.09655,0 -3.31035,0.77241 -1.21379,0.77242 -1.21379,2.31724 v 1.10345 h -10.5931 v -2.20689 q 0,-1.87587 0.9931,-3.42069 1.10345,-1.54483 2.86896,-2.53793 1.87587,-1.10345 4.19311,-1.65518 2.31724,-0.55172 4.85517,-0.55172 h 7.50345 q 2.53793,0 4.85517,0.55172 2.31724,0.55173 4.08276,1.65518 1.87586,0.9931 2.86897,2.53793 1.10344,1.54482 1.10344,3.42069 V 329.55 h -10.5931 v -0.9931 q -2.42759,0.9931 -5.4069,0.9931 h -4.74482 q -2.53794,0 -4.96552,-0.55172 -2.31724,-0.55173 -4.08276,-1.54483 -1.76552,-1.10345 -2.86897,-2.64828 -1.10344,-1.54483 -1.10344,-3.42069 z m 23.17241,0.9931 q -0.11034,-1.54482 -1.32414,-2.20689 -1.10345,-0.77242 -3.08965,-0.77242 h -3.64138 q -2.09655,0 -3.31035,0.77242 -1.21379,0.77241 -1.21379,2.31724 v 3.31034 q 0,1.54483 1.21379,2.31725 1.2138,0.77241 3.31035,0.77241 h 3.64138 q 1.9862,0 3.2,-0.77241 1.21379,-0.77242 1.21379,-2.31725 z"
         style="font-family:Dhurjati;-inkscape-font-specification:Dhurjati;fill:#ffffff;fill-opacity:1"
         id="path81784" />
      <path
         d="m 354.72784,329.55 h -10.59311 v -34.53793 h 10.59311 v 2.64827 q 0.55172,-0.55172 1.32413,-0.9931 0.77242,-0.55172 1.76552,-0.88276 1.10345,-0.33103 2.31724,-0.55172 1.2138,-0.22069 2.53793,-0.22069 h 1.87587 v 6.17931 h -2.75862 q -1.43449,0 -2.75863,0.33103 -1.21379,0.33104 -2.20689,0.99311 -0.88276,0.55172 -1.54483,1.43448 -0.55172,0.88276 -0.55172,1.98621 z"
         style="font-family:Dhurjati;-inkscape-font-specification:Dhurjati;fill:#ffffff;fill-opacity:1"
         id="path81786" />
      <path
         d="m 83.169706,384.28895 v -46.23448 h 10.924138 l 16.551726,28.24828 v -28.13794 h 10.70345 v 46.12414 H 110.20419 L 93.76281,356.48206 v 27.80689 z"
         style="font-family:Dhurjati;-inkscape-font-specification:'Dhurjati, Normal';fill:#ffffff;fill-opacity:1"
         id="path81788" />
      <path
         d="m 154.28713,384.28895 h -7.93739 v -4.1728 q -1.13391,2.35854 -2.90281,3.58317 -1.81426,1.22462 -4.1728,1.22462 -3.94601,0 -5.76027,-2.22247 -1.85962,-2.26782 -1.85962,-6.9849 v -12.6091 h -3.67388 v -2.35854 h 7.75596 v 13.69766 q 0,4.30887 1.08856,5.89635 1.0432,1.58747 3.71923,1.58747 2.81211,0 4.30887,-2.08639 1.49676,-2.0864 1.49676,-6.03242 v -10.70413 h -3.5378 v -2.35854 h 7.61989 v 21.18148 h 3.8553 z m -7.12097,-36.2852 -7.52918,8.3456 h -2.58532 l 5.71492,-8.3456 z"
         style="font-size:45.3565px;font-family:'DejaVu Math TeX Gyre';-inkscape-font-specification:'DejaVu Math TeX Gyre';fill:#ffffff;fill-opacity:1"
         id="path81790" />
      <path
         d="m 170.08942,384.28895 h -10.5931 v -34.53793 h 10.5931 v 2.09655 q 1.54483,-0.88276 3.31035,-1.43448 1.76552,-0.66207 3.86207,-0.66207 h 3.08965 q 3.08966,0 5.73793,0.77242 2.75862,0.77241 4.63449,2.31724 2.31724,-1.65518 4.74482,-2.31724 2.53794,-0.77242 4.85518,-0.77242 h 3.08965 q 2.53793,0 4.85517,0.55173 2.42759,0.55172 4.19311,1.65517 1.76552,0.9931 2.86896,2.53793 1.10345,1.43448 1.10345,3.42069 v 26.37241 H 205.7308 v -25.26896 q 0,-1.65518 -1.21379,-2.31724 -1.10345,-0.77242 -3.2,-0.77242 h -1.87586 q -1.10345,0 -2.2069,0.33104 -1.10345,0.22069 -1.98621,0.77241 -0.77241,0.44138 -1.32413,1.10345 -0.55173,0.66207 -0.66207,1.43448 v 24.71724 h -10.59311 v -25.26896 q 0,-1.65518 -1.21379,-2.31724 -1.21379,-0.77242 -3.2,-0.77242 h -1.98621 q -1.21379,0 -2.31724,0.33104 -1.10345,0.33103 -1.9862,0.88275 -0.88276,0.55173 -1.43449,1.32414 -0.44138,0.77242 -0.44138,1.65518 z"
         style="font-family:Dhurjati;-inkscape-font-specification:'Dhurjati, Normal';fill:#ffffff;fill-opacity:1"
         id="path81792" />
      <path
         d="m 258.0342,368.28895 h -22.73103 v 6.73104 q 0,1.54482 1.21379,2.31724 1.2138,0.77241 3.31035,0.77241 h 3.2 q 1.9862,0 3.2,-0.77241 1.21379,-0.77242 1.21379,-2.31724 v -2.2069 h 10.5931 v 3.2 q 0,1.98621 -1.10344,3.53103 -0.99311,1.54483 -2.86897,2.64828 -1.76552,0.9931 -4.08276,1.54483 -2.31724,0.55172 -4.85517,0.55172 h -7.3931 q -2.53794,0 -4.96552,-0.55172 -2.31724,-0.55173 -4.08276,-1.54483 -1.76552,-1.10345 -2.86897,-2.64828 -1.10344,-1.54482 -1.10344,-3.53103 v -18.09655 q 0,-1.98621 1.10344,-3.53104 1.10345,-1.54482 2.86897,-2.53793 1.76552,-1.10345 4.08276,-1.65517 2.42758,-0.55172 4.96552,-0.55172 h 7.3931 q 2.53793,0 4.85517,0.55172 2.31724,0.55172 4.08276,1.65517 1.87586,0.99311 2.86897,2.53793 1.10344,1.54483 1.10344,3.53104 z m -10.5931,-9.37931 q 0,-1.54483 -1.21379,-2.31724 -1.2138,-0.77241 -3.2,-0.77241 h -3.2 q -2.09655,0 -3.31035,0.77241 -1.21379,0.77241 -1.21379,2.31724 v 3.2 h 12.13793 z"
         style="font-family:Dhurjati;-inkscape-font-specification:'Dhurjati, Normal';fill:#ffffff;fill-opacity:1"
         id="path81794" />
      <path
         d="m 276.68244,384.28895 h -10.5931 v -34.53793 h 10.5931 v 2.64828 q 0.55173,-0.55173 1.32414,-0.99311 0.77241,-0.55172 1.76552,-0.88275 1.10345,-0.33104 2.31724,-0.55173 1.21379,-0.22069 2.53793,-0.22069 h 1.87586 v 6.17931 h -2.75862 q -1.43448,0 -2.75862,0.33104 -1.21379,0.33103 -2.2069,0.9931 -0.88276,0.55172 -1.54482,1.43448 -0.55173,0.88276 -0.55173,1.98621 z"
         style="font-family:Dhurjati;-inkscape-font-specification:'Dhurjati, Normal';fill:#ffffff;fill-opacity:1"
         id="path81796" />
      <path
         d="m 291.46849,357.91654 q 0,-1.98621 1.10345,-3.53104 1.10345,-1.54482 2.86896,-2.53793 1.76552,-1.10345 4.08276,-1.65517 2.42759,-0.55172 4.96552,-0.55172 h 7.3931 q 2.53793,0 4.85517,0.55172 2.31725,0.55172 4.08276,1.65517 1.87586,0.99311 2.86897,2.53793 1.10345,1.54483 1.10345,3.53104 v 18.09655 q 0,1.98621 -1.10345,3.53103 -0.99311,1.54483 -2.86897,2.64828 -1.76551,0.9931 -4.08276,1.54483 -2.31724,0.55172 -4.85517,0.55172 h -7.3931 q -2.53793,0 -4.96552,-0.55172 -2.31724,-0.55173 -4.08276,-1.54483 -1.76551,-1.10345 -2.86896,-2.64828 -1.10345,-1.54482 -1.10345,-3.53103 z m 22.73103,0.9931 q 0,-1.54483 -1.21379,-2.31724 -1.21379,-0.77241 -3.2,-0.77241 h -3.2 q -2.09655,0 -3.31034,0.77241 -1.2138,0.77241 -1.2138,2.31724 v 16.11035 q 0,1.54482 1.2138,2.31724 1.21379,0.77241 3.31034,0.77241 h 3.2 q 1.98621,0 3.2,-0.77241 1.21379,-0.77242 1.21379,-2.31724 z"
         style="font-family:Dhurjati;-inkscape-font-specification:'Dhurjati, Normal';fill:#ffffff;fill-opacity:1"
         id="path81798" />
    </g>
    <path
       style="fill:none;fill-rule:evenodd;stroke:#ffffff;stroke-width:13.25004454;stroke-miterlimit:4;stroke-dasharray:none;marker-start:url(#DotM);marker-end:url(#Arrow1Send);stroke-opacity:1"
       id="path35444"
       d="m 135.10452,306.48294 c -5.85195,0.11756 -3.61538,-8.07896 -0.98655,-10.36524 7.07011,-6.14886 17.48475,-0.85758 21.3051,6.32209 6.61457,12.43088 -1.52241,27.15252 -13.63072,32.24497 -17.52074,7.36879 -36.96183,-3.88974 -43.184847,-20.93936 -8.228769,-22.54491 6.247127,-46.82692 28.247997,-54.12471 27.54511,-9.13686 56.72004,8.59845 65.06459,35.55663 10.07053,32.53422 -10.94607,66.62934 -42.86527,76.00446 -37.51738,11.01937 -76.54884,-13.29133 -86.944329,-50.17391 -11.977931,-42.497 15.634992,-86.47518 57.482539,-97.8842 47.47435,-12.94306 96.40636,17.97756 108.82407,64.79118 13.91285,52.45017 -20.31932,106.34105 -72.09982,119.76394 C 98.89239,422.56485 40.038879,385.0183 25.613479,328.27033 9.7516237,265.87151 50.614688,202.05253 112.33057,186.62666 c 67.37215,-16.83965 136.15883,27.34158 152.58354,94.02573 11.76624,47.7708 -4.77383,99.1524 -41.26295,131.92271"
       transform="matrix(0.32656494,0,0,0.32656494,12.214356,13.287882)" />
  </g>
</svg>
